<?xml version="1.0" encoding="utf-8"?>
<!-- Generator: Adobe Illustrator 25.0.0, SVG Export Plug-In . SVG Version: 6.00 Build 0)  -->
<svg version="1.1" id="Capa_1" xmlns="http://www.w3.org/2000/svg" xmlns:xlink="http://www.w3.org/1999/xlink" x="0px" y="0px"
	 viewBox="0 0 480 480" style="enable-background:new 0 0 480 480;" xml:space="preserve">
<g>
	<g>
		<path d="M240,0c-4.4,0-8,3.6-8,8v48c0,4.4,3.6,8,8,8s8-3.6,8-8V8C248,3.6,244.4,0,240,0z"/>
	</g>
</g>
<g>
	<g>
		<path d="M209,18l-1.4-7.9c-0.8-4.4-4.9-7.3-9.3-6.5s-7.3,4.9-6.5,9.3l1.4,7.9c0.7,3.8,4,6.6,7.9,6.6c0.5,0,0.9,0,1.4-0.1h0
			C206.8,26.5,209.7,22.4,209,18z"/>
	</g>
</g>
<g>
	<g>
		<g>
			<path d="M163.4,37.5L163.4,37.5L163.4,37.5z"/>
			<path d="M170.9,26.8l-2.7-7.5c0-0.1-0.1-0.2-0.1-0.3c-1.6-4.1-6.2-6.2-10.3-4.6s-6.2,6.2-4.6,10.3l2.7,7.5
				c1.1,3.2,4.2,5.3,7.5,5.3c0.9,0,1.9-0.2,2.7-0.5C170.3,35.5,172.4,30.9,170.9,26.8z"/>
		</g>
	</g>
</g>
<g>
	<g>
		<path d="M102.1,63.3L97,57.1c-2.8-3.2-7.7-3.7-11-1c-3.4,2.8-4,7.8-1.2,11.2l5.1,6.1c1.5,1.8,3.8,2.9,6.1,2.9
			c1.9,0,3.7-0.7,5.1-1.9C104.5,71.7,105,66.6,102.1,63.3z"/>
	</g>
</g>
<g>
	<g>
		<path d="M73.5,89.9l-6.1-5.1c-3.3-2.7-8.2-2.3-11,1c-2.9,3.3-2.6,8.4,0.8,11.3l6.1,5.1c1.4,1.2,3.3,1.9,5.1,1.9
			c2.4,0,4.6-1,6.1-2.9C77.4,97.8,76.9,92.7,73.5,89.9z"/>
	</g>
</g>
<g>
	<g>
		<path d="M32.2,155.9l-7.5-2.7c-0.1,0-0.2-0.1-0.3-0.1c-4.2-1.4-8.7,0.8-10.2,5c-1.4,4.2,0.8,8.7,5,10.2l7.5,2.7
			c0.9,0.3,1.8,0.5,2.7,0.5c3.4,0,6.4-2.1,7.6-5.3C38.6,161.9,36.4,157.4,32.2,155.9z"/>
	</g>
</g>
<g>
	<g>
		<path d="M20.8,193.2l-7.9-1.4c-4.4-0.8-8.5,2.1-9.3,6.5s2.1,8.5,6.5,9.3L18,209c0.5,0.1,0.9,0.1,1.4,0.1c3.9,0,7.2-2.8,7.9-6.6
			C28.1,198.1,25.1,194,20.8,193.2z"/>
	</g>
</g>
<g>
	<g>
		<path d="M27.3,277.5c-0.8-4.4-4.9-7.3-9.3-6.5l-7.9,1.4c-3.8,0.7-6.6,4-6.6,7.9c0,4.4,3.6,8,8,8c0.5,0,0.9,0,1.4-0.1l7.9-1.4
			C25.1,286,28.1,281.9,27.3,277.5z"/>
	</g>
</g>
<g>
	<g>
		<path d="M37,313.9c-1.5-4.2-6.1-6.3-10.3-4.8l-7.5,2.7c-3.2,1.1-5.3,4.2-5.3,7.5c0,4.4,3.6,8,8,8c0.9,0,1.9-0.2,2.7-0.5l7.5-2.7
			C36.4,322.6,38.5,318,37,313.9z"/>
	</g>
</g>
<g>
	<g>
		<path d="M74.6,378.6c-2.9-3.3-8-3.7-11.3-0.8l-6.1,5.1c-1.8,1.5-2.9,3.8-2.9,6.1c0,4.4,3.6,8,8,8c1.9,0,3.7-0.7,5.1-1.9l6.1-5.1
			c0.1-0.1,0.2-0.1,0.3-0.2C77.1,387,77.5,381.9,74.6,378.6z"/>
	</g>
</g>
<g>
	<g>
		<path d="M101.1,405.2c-3.4-2.8-8.5-2.2-11.2,1.2l-5.1,6.1c-1.2,1.4-1.9,3.3-1.9,5.1c0,4.4,3.6,8,8,8c2.4,0,4.6-1,6.1-2.9l5.1-6.1
			c0.1-0.1,0.1-0.2,0.2-0.3C105.1,413,104.6,408,101.1,405.2z"/>
	</g>
</g>
<g>
	<g>
		<path d="M166.1,443c-4.2-1.5-8.7,0.6-10.3,4.8l-2.7,7.5c-0.3,0.9-0.5,1.8-0.5,2.7c0,4.4,3.6,8,8,8c3.4,0,6.4-2.1,7.5-5.3l2.7-7.5
			C172.4,449.1,170.3,444.5,166.1,443z"/>
	</g>
</g>
<g>
	<g>
		<path d="M202.5,452.7c-4.4-0.8-8.5,2.1-9.3,6.5l-1.4,7.9v0c-0.8,4.4,2.1,8.5,6.5,9.3c0.5,0.1,0.9,0.1,1.4,0.1
			c3.9,0,7.2-2.8,7.9-6.6l1.4-7.9C209.8,457.6,206.8,453.5,202.5,452.7z"/>
	</g>
</g>
<g>
	<g>
		<path d="M288.2,467.1l-1.4-7.9c-0.8-4.4-4.9-7.3-9.3-6.5c-4.4,0.8-7.3,4.9-6.5,9.3l1.4,7.9c0.7,3.8,4,6.6,7.9,6.6
			c0.5,0,0.9,0,1.4-0.1h0C286,475.6,288.9,471.4,288.2,467.1z"/>
	</g>
</g>
<g>
	<g>
		<path d="M326.9,455.3l-2.7-7.5c-1.5-4.2-6.1-6.3-10.3-4.8s-6.3,6.1-4.8,10.3l2.7,7.5c1.1,3.2,4.2,5.3,7.5,5.3l0,0
			c0.9,0,1.9-0.2,2.7-0.5C326.2,464,328.4,459.4,326.9,455.3z"/>
	</g>
</g>
<g>
	<g>
		<path d="M395.3,412.6l-5.1-6.1c-0.1-0.1-0.1-0.2-0.2-0.3c-2.9-3.3-8-3.7-11.3-0.8s-3.7,8-0.8,11.3l5.1,6.1
			c1.5,1.8,3.8,2.9,6.1,2.9l0,0c1.9,0,3.7-0.7,5.1-1.9C397.6,421,398.1,416,395.3,412.6z"/>
	</g>
</g>
<g>
	<g>
		<path d="M422.9,383l-6.1-5.1c-0.1-0.1-0.2-0.1-0.3-0.2c-3.4-2.8-8.5-2.2-11.2,1.2s-2.2,8.5,1.2,11.2l6.1,5.1
			c1.4,1.2,3.3,1.9,5.1,1.9l0,0c2.4,0,4.6-1,6.1-2.9C426.7,390.9,426.2,385.8,422.9,383z"/>
	</g>
</g>
<g>
	<g>
		<path d="M460.7,311.8l-7.5-2.7c-4.2-1.5-8.7,0.6-10.3,4.8s0.6,8.7,4.8,10.3l7.5,2.7c0.9,0.3,1.8,0.5,2.7,0.5l0,0
			c3.4,0,6.4-2.1,7.5-5.3C467,317.9,464.9,313.3,460.7,311.8z"/>
	</g>
</g>
<g>
	<g>
		<path d="M469.9,272.4L462,271c-4.4-0.8-8.5,2.1-9.3,6.5s2.1,8.5,6.5,9.3l7.9,1.4c0.5,0.1,0.9,0.1,1.4,0.1c3.9,0,7.2-2.8,7.9-6.6
			C477.1,277.3,474.2,273.2,469.9,272.4z"/>
	</g>
</g>
<g>
	<g>
		<path d="M476.4,198.3c-0.8-4.4-4.9-7.3-9.3-6.5l-7.9,1.4c-3.8,0.7-6.6,4-6.6,7.9c0,4.4,3.6,8,8,8c0.5,0,0.9,0,1.4-0.1l7.9-1.4
			C474.2,206.8,477.1,202.7,476.4,198.3z"/>
	</g>
</g>
<g>
	<g>
		<path d="M465.6,157.7c-1.6-4.1-6.2-6.2-10.3-4.6l-7.5,2.7c-3.2,1.1-5.3,4.2-5.3,7.6c0,4.4,3.6,8,8,8c0.9,0,1.9-0.2,2.7-0.5
			l7.5-2.7c0.1,0,0.2-0.1,0.3-0.1C465.2,166.5,467.2,161.8,465.6,157.7z"/>
	</g>
</g>
<g>
	<g>
		<path d="M423.8,86c-2.8-3.4-7.8-4-11.2-1.2l-6.1,5.1c-1.8,1.5-2.9,3.8-2.9,6.1c0,4.4,3.6,8,8,8c1.9,0,3.7-0.7,5.1-1.9l6.1-5.1
			C426.1,94.2,426.5,89.3,423.8,86z"/>
	</g>
</g>
<g>
	<g>
		<path d="M394.3,56.4c-3.3-2.9-8.4-2.6-11.3,0.8l-5.1,6.1c-1.2,1.4-1.9,3.3-1.9,5.1c0,4.4,3.6,8,8,8c2.4,0,4.6-1.1,6.1-2.9l5.1-6.1
			C398,64.1,397.5,59.2,394.3,56.4z"/>
	</g>
</g>
<g>
	<g>
		<path d="M322,14.3c-4.2-1.4-8.7,0.8-10.2,5l-2.7,7.5c-0.3,0.9-0.5,1.8-0.5,2.7c0,4.4,3.6,8,8,8c3.4,0,6.4-2.1,7.5-5.3l2.7-7.5
			c0-0.1,0.1-0.2,0.1-0.3C328.4,20.3,326.2,15.7,322,14.3z"/>
	</g>
</g>
<g>
	<g>
		<path d="M281.7,3.6c-4.4-0.8-8.5,2.1-9.3,6.5L271,18v0c-0.8,4.4,2.1,8.5,6.5,9.3c0.5,0.1,0.9,0.1,1.4,0.1c3.9,0,7.2-2.8,7.9-6.6
			l1.4-7.9C288.9,8.6,286,4.4,281.7,3.6z"/>
	</g>
</g>
<g>
	<g>
		<path d="M146.9,62.8l-16-27.7c-2.2-3.8-7.1-5.1-10.9-2.9c-3.8,2.2-5.2,7.1-3,10.9l16,27.7c1.4,2.5,4.1,4,6.9,4
			c1.4,0,2.8-0.4,4-1.1C147.8,71.5,149.1,66.6,146.9,62.8z"/>
	</g>
</g>
<g>
	<g>
		<path d="M70.8,133.1l-27.7-16c-3.8-2.2-8.6-0.9-10.9,2.9c-2.2,3.8-1,8.7,2.9,10.9l27.7,16c1.2,0.7,2.6,1.1,4,1.1
			c2.9,0,5.5-1.5,6.9-4C75.9,140.2,74.6,135.3,70.8,133.1z"/>
	</g>
</g>
<g>
	<g>
		<path d="M73.7,335.9c-2.2-3.8-7.1-5.1-10.9-2.9l-27.7,16c-2.5,1.4-4,4.1-4,6.9c0,4.4,3.6,8,8,8c1.4,0,2.8-0.4,4-1.1l27.7-16
			c0,0,0.1,0,0.1-0.1C74.7,344.6,76,339.7,73.7,335.9z"/>
	</g>
</g>
<g>
	<g>
		<path d="M144,406.2c-3.8-2.2-8.7-0.8-10.9,3l-16,27.7c-0.7,1.2-1.1,2.6-1.1,4c0,4.4,3.6,8,8,8c2.9,0,5.5-1.5,6.9-4l16-27.7
			c0,0,0-0.1,0.1-0.1C149.2,413.3,147.8,408.4,144,406.2z"/>
	</g>
</g>
<g>
	<g>
		<path d="M362.9,436.9l-16-27.7c-2.2-3.8-7-5.1-10.9-2.9c-3.8,2.2-5.2,7.1-3,10.9l16,27.7c1.4,2.5,4.1,4,6.9,4c1.4,0,2.8-0.4,4-1.1
			C363.8,445.6,365.1,440.7,362.9,436.9z"/>
	</g>
</g>
<g>
	<g>
		<path d="M444.9,349.1l-27.7-16c-3.8-2.2-8.6-0.9-10.9,2.9c-2.2,3.8-1,8.7,2.9,10.9l27.7,16c1.2,0.7,2.6,1.1,4,1.1
			c2.9,0,5.5-1.5,6.9-4C450,356.2,448.7,351.3,444.9,349.1z"/>
	</g>
</g>
<g>
	<g>
		<path d="M447.8,120.1c-2.2-3.8-7.1-5.2-10.9-3l-27.7,16c-2.5,1.4-4,4.1-4,6.9c0,4.4,3.6,8,8,8c1.4,0,2.8-0.4,4-1.1l27.7-16
			C448.7,128.7,450,123.9,447.8,120.1z"/>
	</g>
</g>
<g>
	<g>
		<path d="M360,32.2c-3.8-2.2-8.7-1-10.9,2.9l-16,27.7c-0.7,1.2-1.1,2.6-1.1,4c0,4.4,3.6,8,8,8c2.9,0,5.5-1.5,6.9-4l16-27.7
			C365.1,39.3,363.8,34.4,360,32.2z"/>
	</g>
</g>
<g>
	<g>
		<path d="M56,232H8c-4.4,0-8,3.6-8,8s3.6,8,8,8h48c4.4,0,8-3.6,8-8S60.4,232,56,232z"/>
	</g>
</g>
<g>
	<g>
		<path d="M240,416c-4.4,0-8,3.6-8,8v48c0,4.4,3.6,8,8,8s8-3.6,8-8v-48C248,419.6,244.4,416,240,416z"/>
	</g>
</g>
<g>
	<g>
		<path d="M472,232h-56c-4.4,0-8,3.6-8,8s3.6,8,8,8h56c4.4,0,8-3.6,8-8S476.4,232,472,232z"/>
	</g>
</g>
<circle cx="240" cy="240" r="14.8"/>
</svg>
